<?xml version="1.0" ?>
<!-- Uploaded to: SVG Repo, www.svgrepo.com, Generator: SVG Repo Mixer Tools -->
<svg width="800px" height="800px" viewBox="0 0 24 24" xmlns="http://www.w3.org/2000/svg" xmlns:xlink="http://www.w3.org/1999/xlink">
<defs>
<style>.cls-1{fill:#8d6de8;}.cls-2{fill:#a78eef;}.cls-3{fill:url(#linear-gradient);}.cls-4{fill:#6c2e7c;}</style>
<linearGradient gradientUnits="userSpaceOnUse" id="linear-gradient" x1="12" x2="12" y1="0.447" y2="23.944">
<stop offset="0" stop-color="#5d5c66"/>
<stop offset="1" stop-color="#48474f"/>
</linearGradient>
</defs>
<g id="Icons">
<path class="cls-1" d="M11,3V23H5V3A2.006,2.006,0,0,1,7,1H9A2.006,2.006,0,0,1,11,3Z"/>
<path class="cls-1" d="M21,11V23H15V11a2.006,2.006,0,0,1,2-2h2A2.006,2.006,0,0,1,21,11Z"/>
<path class="cls-2" d="M11,3V18H5V3A2.006,2.006,0,0,1,7,1H9A2.006,2.006,0,0,1,11,3Z"/>
<path class="cls-2" d="M21,11v7H15V11a2.006,2.006,0,0,1,2-2h2A2.006,2.006,0,0,1,21,11Z"/>
<path class="cls-3" d="M23,24H4a4,4,0,0,1-4-4V1A1,1,0,0,1,2,1V20a2,2,0,0,0,2,2H23a1,1,0,0,1,0,2Z"/>
</g>
<g data-name="Layer 4" id="Layer_4">
<path class="cls-4" d="M23,22H22V11a3,3,0,0,0-3-3H17a3,3,0,0,0-3,3V22H12V3A3,3,0,0,0,9,0H7A3,3,0,0,0,4,3V22a2,2,0,0,1-2-2V1A1,1,0,0,0,0,1V20a4,4,0,0,0,4,4H23a1,1,0,0,0,0-2ZM6,22V3A1,1,0,0,1,7,2H9a1,1,0,0,1,1,1V22Zm10,0V11a1,1,0,0,1,1-1h2a1,1,0,0,1,1,1V22Z"/>
</g>
</svg>